<?xml version="1.0" encoding="UTF-8"?>
<svg version="1.1" xmlns="http://www.w3.org/2000/svg" width="512" height="512">
<path d="M0 0 C0.94571403 -0.00297112 1.89142805 -0.00594224 2.86580008 -0.0090034 C6.04861903 -0.01770535 9.23140043 -0.01919991 12.41423035 -0.02069092 C14.69062379 -0.02531801 16.96701645 -0.03034253 19.2434082 -0.03573608 C25.43765046 -0.0488721 31.63188186 -0.05530733 37.82613587 -0.05974674 C41.69383214 -0.06267539 45.56152543 -0.06677979 49.4292202 -0.07125092 C60.13769474 -0.083361 70.84616564 -0.09374277 81.55464649 -0.09712601 C82.5827031 -0.09745536 82.5827031 -0.09745536 83.63152854 -0.09779136 C84.31853942 -0.09800964 85.00555029 -0.09822791 85.71337968 -0.09845281 C87.10552522 -0.09889627 88.49767075 -0.09934284 89.88981628 -0.09979248 C90.92564467 -0.10012463 90.92564467 -0.10012463 91.98239889 -0.10046348 C103.17174216 -0.10441147 114.36102031 -0.1218656 125.55033842 -0.145152 C137.03817384 -0.16886669 148.52596729 -0.18106993 160.01382846 -0.18249393 C166.46387561 -0.18354332 172.91383091 -0.18947985 179.36385536 -0.20731354 C185.43031694 -0.22376011 191.4966173 -0.22596628 197.56309319 -0.21717453 C199.79074662 -0.21640234 202.0184086 -0.22077072 204.24604034 -0.23063278 C207.28523256 -0.24329957 210.32384922 -0.23750394 213.36303711 -0.22705078 C214.687802 -0.23913539 214.687802 -0.23913539 216.03932983 -0.25146413 C221.75958295 -0.20539526 226.16089257 0.60965123 230.51652527 4.67559814 C235.25659828 10.87415516 235.74670126 15.36747524 234.87199402 23.14044189 C233.22800223 27.20790435 231.05964356 29.40030209 227.36396599 31.70343781 C222.87042527 33.55260396 219.12981231 33.56371971 214.320755 33.53485107 C213.36572173 33.54094218 212.41068846 33.54703328 211.42671478 33.55330896 C208.23013061 33.56994306 205.03394459 33.56516248 201.83732605 33.56036377 C199.54402757 33.56770385 197.25073279 33.57628989 194.95744324 33.58602905 C188.73015458 33.60826017 182.50299819 33.61117492 176.2756753 33.60928154 C171.07680964 33.60916191 165.87797207 33.61772291 160.67911422 33.62605906 C147.7124664 33.64639906 134.74590457 33.64744113 121.77924763 33.64025193 C110.52671739 33.63467728 99.27441488 33.65550016 88.02193786 33.6886124 C76.45939443 33.72237217 64.89698792 33.73704058 53.33439147 33.73289537 C46.84626799 33.73082704 40.3583713 33.73632065 33.87028885 33.76078796 C27.76837953 33.78303853 21.66694437 33.78119072 15.56503296 33.76086044 C13.3269298 33.75744746 11.08879483 33.76255179 8.85073471 33.77684402 C5.79233697 33.79502562 2.73554961 33.78229447 -0.32279968 33.76190186 C-1.64742936 33.78067863 -1.64742936 33.78067863 -2.99881923 33.79983473 C-9.1863569 33.71154487 -13.32691812 32.07739246 -18.12800598 28.14044189 C-21.75894708 23.64670291 -21.63034692 19.60500381 -21.47956848 14.01934814 C-20.84228313 8.80068921 -18.33769231 6.23211005 -14.56550598 2.82794189 C-9.92369543 -0.38561926 -5.43166552 -0.00528892 0 0 Z " fill="#000000" transform="translate(149.1280059814453,329.85955810546875)"/>
<path d="M0 0 C4.77648135 3.09623906 8.6138614 7.28514453 12.58950806 11.32345581 C13.55664559 12.29298287 14.5245295 13.26176592 15.49311829 14.22984314 C17.51044673 16.25028259 19.52093193 18.27720595 21.52627563 20.30953979 C24.0892722 22.90660492 26.66532905 25.49021808 29.24616718 28.06954098 C31.24138983 30.06530874 33.23134853 32.06625588 35.21959496 34.06897163 C36.62625829 35.48503399 38.03587341 36.8981622 39.44554138 38.31123352 C40.30040634 39.17885818 41.1552713 40.04648285 42.03604126 40.94039917 C42.78690506 41.69888657 43.53776886 42.45737396 44.31138611 43.23884583 C48.0720371 47.50810623 49.71886966 50.70461282 49.72622681 56.42111206 C49.74556274 57.4201355 49.76489868 58.41915894 49.78482056 59.44845581 C48.84290096 65.21122371 44.78140718 69.24151586 40.76724243 73.2638855 C39.87952148 74.15791077 38.99180054 75.05193604 38.07717896 75.97305298 C37.1166995 76.92995328 36.15595917 77.88659181 35.19497681 78.84298706 C34.20107309 79.83823992 33.20746628 80.83378934 32.21414185 81.82962036 C30.13953416 83.90716482 28.06138219 85.98107852 25.98062134 88.05245972 C23.31741619 90.70424137 20.66333144 93.36494205 18.01181793 96.02840805 C15.96508701 98.08237129 13.91361003 100.13154082 11.860672 102.1792984 C10.88002329 103.15861596 9.90084977 104.13941308 8.92320251 105.12172699 C7.55705153 106.49296883 6.1837786 107.85710398 4.81021118 109.22091675 C4.03173828 109.99779846 3.25326538 110.77468018 2.45120239 111.57510376 C-2.34098412 115.80448226 -6.48722606 115.97665865 -12.72689819 115.86251831 C-17.13842771 115.30241574 -19.74982315 113.74813447 -22.71127319 110.48361206 C-25.81390572 106.17996049 -26.08198821 102.28429642 -26.20736694 97.14376831 C-24.87435361 89.9958779 -19.76102454 85.11851346 -14.75814819 80.23751831 C-13.76781586 79.25355324 -13.76781586 79.25355324 -12.75747681 78.24971008 C-10.66573244 76.17463787 -8.56375801 74.11029543 -6.46127319 72.04611206 C-5.03349851 70.63339898 -3.6064079 69.21999418 -2.18002319 67.80587769 C1.30169957 64.357072 4.7926309 60.9178442 8.28872681 57.48361206 C6.98252226 54.59557466 5.5996286 52.55389439 3.33950806 50.33908081 C2.74549194 49.75167114 2.15147583 49.16426147 1.53945923 48.55905151 C0.89984253 47.93603149 0.26022583 47.31301147 -0.39877319 46.67111206 C-1.0570813 46.0203772 -1.7153894 45.36964233 -2.39364624 44.69918823 C-4.49478356 42.62245668 -6.60220539 40.55228732 -8.71127319 38.48361206 C-11.487858 35.76020398 -14.25778645 33.03027862 -17.02377319 30.29611206 C-17.66338989 29.67309204 -18.30300659 29.05007202 -18.96200562 28.40817261 C-19.55602173 27.82076294 -20.15003784 27.23335327 -20.76205444 26.62814331 C-21.28452759 26.1161438 -21.80700073 25.60414429 -22.3453064 25.07662964 C-25.88962894 20.94317037 -26.08513418 17.21645397 -25.96127319 11.95236206 C-25.48268987 7.22635171 -23.7306391 4.44932713 -20.33627319 1.23361206 C-13.44928353 -3.35771438 -7.49123299 -3.9065372 0 0 Z " fill="#000000" transform="translate(334.7112731933594,156.51638793945313)"/>
<path d="M0 0 C1.76694214 -0.01270432 1.76694214 -0.01270432 3.56958008 -0.02566528 C6.78877055 -0.04501305 10.00760433 -0.05081535 13.2268424 -0.04891777 C15.92050813 -0.04879775 18.61412014 -0.05737484 21.30777085 -0.06569529 C27.66648032 -0.08490569 34.02505853 -0.08782199 40.38378906 -0.08105469 C46.92890617 -0.07441679 53.47345931 -0.09727281 60.01846206 -0.13436842 C65.6509661 -0.1651259 71.28328928 -0.17641891 76.91587555 -0.1725316 C80.27416688 -0.17047014 83.63201927 -0.17584859 86.99023056 -0.20042419 C90.73873164 -0.22259659 94.48587794 -0.21291813 98.234375 -0.1953125 C99.33697662 -0.20857574 100.43957825 -0.22183899 101.57559204 -0.23550415 C108.37416518 -0.16143736 113.02171288 0.91605773 118.24658203 5.41992188 C121.87752313 9.91366086 121.74892297 13.95535996 121.59814453 19.54101562 C120.96365713 24.73676246 118.45828474 27.29909687 114.74658203 30.73242188 C110.96505783 33.28495071 107.78833922 33.54490736 103.28823853 33.56036377 C102.2901265 33.56607391 101.29201447 33.57178406 100.26365662 33.57766724 C98.63026085 33.57934402 98.63026085 33.57934402 96.96386719 33.58105469 C95.23643532 33.58850204 95.23643532 33.58850204 93.47410583 33.59609985 C89.66127934 33.610715 85.84849444 33.61752195 82.03564453 33.62304688 C79.38772582 33.62879825 76.73980712 33.63455598 74.09188843 33.64031982 C69.24837046 33.64988574 64.40486146 33.65578608 59.56133521 33.65881658 C52.43954801 33.66329753 45.31795271 33.68085085 38.19622386 33.70981717 C32.68526303 33.73145156 27.17435615 33.74152176 21.66335332 33.74285769 C18.37448861 33.74390432 15.08584537 33.75123334 11.79701614 33.76767731 C8.12722445 33.78471831 4.45790107 33.78286212 0.78808594 33.77636719 C-0.29679611 33.78558197 -1.38167816 33.79479675 -2.49943542 33.80429077 C-8.77697078 33.76946089 -13.58951683 33.37339729 -18.39794922 28.88476562 C-23.13802223 22.68620861 -23.62812521 18.19288853 -22.75341797 10.41992188 C-21.13262954 6.40986775 -18.96322389 4.21683342 -15.38302612 1.85852051 C-10.23010752 -0.18384367 -5.49596896 -0.01455429 0 0 Z " fill="#000000" transform="translate(150.75341796875,148.580078125)"/>
<path d="M0 0 C1.80102173 -0.01051392 1.80102173 -0.01051392 3.63842773 -0.02124023 C6.919582 -0.03579754 10.20008754 -0.03242994 13.48123169 -0.01972389 C16.921746 -0.00956688 20.36221828 -0.01899704 23.80273438 -0.02526855 C29.57950574 -0.03253716 35.35607227 -0.02297813 41.1328125 -0.00390625 C47.80287848 0.01786123 54.47245533 0.01080928 61.14250946 -0.01121187 C66.8786003 -0.02938852 72.61454425 -0.03191322 78.3506546 -0.0214572 C81.77250684 -0.0152346 85.19412949 -0.01435227 88.6159668 -0.02760315 C92.43181426 -0.03776132 96.24672249 -0.02227556 100.0625 0 C101.19099365 -0.00809692 102.3194873 -0.01619385 103.48217773 -0.02453613 C109.65561161 0.04222947 113.34434284 0.37053288 118.03125 4.51757812 C121.65958663 8.33687985 122.34125458 11.40036819 122.53125 16.51757812 C122.34125458 21.63478806 121.65958663 24.6982764 118.03125 28.51757812 C112.47772201 33.43142239 107.25320116 33.08674942 100.0625 33.03515625 C98.26147827 33.04567017 98.26147827 33.04567017 96.42407227 33.05639648 C93.142918 33.07095379 89.86241246 33.06758619 86.58126831 33.05488014 C83.140754 33.04472313 79.70028172 33.05415329 76.25976562 33.0604248 C70.48299426 33.06769341 64.70642773 33.05813438 58.9296875 33.0390625 C52.25962152 33.01729502 45.59004467 33.02434697 38.91999054 33.04636812 C33.1838997 33.06454477 27.44795575 33.06706947 21.7118454 33.05661345 C18.28999316 33.05039085 14.86837051 33.04950852 11.4465332 33.0627594 C7.63068574 33.07291757 3.81577751 33.05743181 0 33.03515625 C-1.69274048 33.04730164 -1.69274048 33.04730164 -3.41967773 33.05969238 C-9.59311161 32.99292678 -13.28184284 32.66462337 -17.96875 28.51757812 C-21.59708663 24.6982764 -22.27875458 21.63478806 -22.46875 16.51757812 C-22.27875458 11.40036819 -21.59708663 8.33687985 -17.96875 4.51757812 C-12.41522201 -0.39626614 -7.19070116 -0.05159317 0 0 Z " fill="#000000" transform="translate(149.96875,239.482421875)"/>
</svg>
