<?xml version="1.0" encoding="UTF-8"?>
<svg version="1.1" xmlns="http://www.w3.org/2000/svg" width="1000" height="1000">
<path d="M0 0 C0.99 0.71800781 1.98 1.43601562 3 2.17578125 C17.74783841 13.06736089 32.27961924 24.81493067 44 39 C45.18916016 40.33998047 45.18916016 40.33998047 46.40234375 41.70703125 C66.31827683 64.26383165 83.05588939 92.19611689 92 121 C93.16015625 120.9278125 94.3203125 120.855625 95.515625 120.78125 C97.09373898 120.68731464 98.67186463 120.59357533 100.25 120.5 C101.38695312 120.42845703 101.38695312 120.42845703 102.546875 120.35546875 C154.10059416 117.34816847 206.35576793 132.78417329 245.59570312 167.02539062 C247.07125866 168.34195068 248.53568807 169.6709458 250 171 C251.04490483 171.92523421 252.09048777 172.84970313 253.13671875 173.7734375 C290.59392653 207.12582578 313.92111387 257.03561984 317 307 C318.91477168 356.53954458 306.95638164 404.46302656 276 444 C275.5654248 444.56009766 275.13084961 445.12019531 274.68310547 445.69726562 C241.0440977 488.531534 192.5415091 514.38743092 138.84765625 521.6171875 C131.51731113 522.34702385 124.11000617 522.24444478 116.75 522.25 C115.54597534 522.25101212 115.54597534 522.25101212 114.31762695 522.25204468 C101.65661494 522.23515954 89.42100908 521.64287858 77 519 C75.78981201 518.75056641 75.78981201 518.75056641 74.55517578 518.49609375 C47.96595296 512.8621207 21.93377344 502.21052935 0 486 C-1.04929687 485.23300781 -2.09859375 484.46601562 -3.1796875 483.67578125 C-10.91176629 477.92777875 -18.03510601 471.6483079 -25 465 C-25.85335938 464.19949219 -26.70671875 463.39898438 -27.5859375 462.57421875 C-37.37745919 453.13791 -45.37252351 442.21807048 -53 431 C-58.34969678 432.44285106 -63.69280544 433.8984161 -69.0078125 435.46484375 C-133.17592949 454.10415392 -200.07097928 445.23303049 -258.45703125 413.5703125 C-284.8525121 398.88326789 -309.51205449 377.82362096 -328 354 C-328.763125 353.06542969 -329.52625 352.13085938 -330.3125 351.16796875 C-369.67555272 302.02723466 -386.43480737 237.26640178 -380.17578125 175.03393555 C-373.78557484 120.56687381 -350.72843032 71.61310677 -313 32 C-312.42975098 31.40106934 -311.85950195 30.80213867 -311.27197266 30.18505859 C-302.75149357 21.30239611 -293.97191605 13.22279987 -284 6 C-283.37512695 5.5467334 -282.75025391 5.0934668 -282.10644531 4.62646484 C-247.74470873 -20.06941371 -209.10199194 -35.78153614 -167 -41 C-166.30567871 -41.0942627 -165.61135742 -41.18852539 -164.89599609 -41.28564453 C-108.2795579 -48.09032932 -46.33071606 -33.73791969 0 0 Z M-183 -7 C-184.02931641 -6.75862305 -185.05863281 -6.51724609 -186.11914062 -6.26855469 C-218.94110958 1.67224425 -249.4409249 16.87542562 -275 39 C-275.804375 39.69351563 -276.60875 40.38703125 -277.4375 41.1015625 C-306.50142669 66.71880558 -327.5004844 98.26145917 -340 135 C-340.37463379 136.09707275 -340.37463379 136.09707275 -340.75683594 137.21630859 C-358.33550389 189.84259817 -351.78004696 248.57510049 -327.63671875 297.9375 C-323.36347861 306.35396097 -318.49572146 314.32090083 -313 322 C-312.31421875 322.96035156 -311.6284375 323.92070313 -310.921875 324.91015625 C-276.63175883 371.7198652 -227.96664882 401.5600689 -171 412 C-170.29584961 412.13277344 -169.59169922 412.26554687 -168.86621094 412.40234375 C-138.36129345 417.87876867 -95.70065018 416.60884634 -68 402 C-68.28198242 401.19594727 -68.56396484 400.39189453 -68.85449219 399.56347656 C-74.30571839 383.91519823 -79.63796199 368.46708238 -82 352 C-82.16918945 350.86473877 -82.16918945 350.86473877 -82.34179688 349.70654297 C-89.69615394 298.36747343 -76.85601583 244.38471341 -45.8203125 202.6796875 C-44.88406037 201.45018217 -43.94414915 200.22345159 -43 199 C-42.57557617 198.44860352 -42.15115234 197.89720703 -41.71386719 197.32910156 C-37.17535257 191.49179539 -32.34496923 186.10201608 -27 181 C-25.7625 179.7625 -25.7625 179.7625 -24.5 178.5 C-23.2625 177.2625 -23.2625 177.2625 -22 176 C-21.50330811 175.48590576 -21.00661621 174.97181152 -20.49487305 174.44213867 C1.818063 151.58140586 31.30876162 138.30721377 61 128 C52.68996176 100.93407044 36.13150216 75.81662855 16.52197266 55.57324219 C15.45278298 54.46803554 14.3905453 53.35608155 13.33349609 52.23925781 C-15.00345528 22.33720698 -51.92998824 2.1600405 -92 -7 C-92.9065332 -7.21172852 -93.81306641 -7.42345703 -94.74707031 -7.64160156 C-122.77943336 -13.89855985 -155.07790655 -13.62606212 -183 -7 Z M13 186 C12.08089844 186.69480469 11.16179687 187.38960937 10.21484375 188.10546875 C-24.86890589 215.64543717 -47.0449188 255.64606955 -53.17553711 299.66943359 C-58.29951202 342.41735525 -46.585055 389.98716903 -19.875 424.3125 C-18.28259574 426.23579345 -16.65758716 428.13259168 -15 430 C-14.54882812 430.51304687 -14.09765625 431.02609375 -13.6328125 431.5546875 C-10.49476327 435.10883165 -7.26971246 438.56680191 -4 442 C-3.33484375 442.71800781 -2.6696875 443.43601562 -1.984375 444.17578125 C19.53126212 466.73103949 50.13515769 480.7851272 80 488 C81.28003906 488.32226562 82.56007813 488.64453125 83.87890625 488.9765625 C105.03162206 493.67628936 131.01381293 493.19061343 152 488 C153.84464844 487.58234375 153.84464844 487.58234375 155.7265625 487.15625 C178.86034826 481.506736 200.16459274 471.56856281 219 457 C219.91652344 456.30648438 220.83304688 455.61296875 221.77734375 454.8984375 C256.55382161 427.62877644 280.02476539 386.73808985 285.49609375 342.80078125 C290.12142953 296.89819846 278.27355273 252.51283686 250 216 C247.11248566 212.54928627 244.0893093 209.2689203 241 206 C239.80734478 204.60856891 238.61959687 203.21291206 237.4375 201.8125 C233.92644794 197.80558182 230.12718174 194.36237845 226 191 C225.05253906 190.2265625 224.10507812 189.453125 223.12890625 188.65625 C215.19573918 182.30773398 206.8721897 176.93829427 198 172 C197.39381836 171.65727051 196.78763672 171.31454102 196.16308594 170.96142578 C177.88338881 160.75664564 157.62387778 155.04388558 137 152 C135.99453125 151.84917969 134.9890625 151.69835937 133.953125 151.54296875 C91.26022974 146.57097008 46.84450724 159.95513744 13 186 Z " fill="#353736" transform="translate(532,260)"/>
<path d="M0 0 C10.23 0 20.46 0 31 0 C31 7.26 31 14.52 31 22 C37.93 22 44.86 22 52 22 C52 31.9 52 41.8 52 52 C45.07 52 38.14 52 31 52 C31 59.26 31 66.52 31 74 C20.77 74 10.54 74 0 74 C0 66.74 0 59.48 0 52 C-7.26 52 -14.52 52 -22 52 C-22 42.1 -22 32.2 -22 22 C-14.74 22 -7.48 22 0 22 C0 14.74 0 7.48 0 0 Z " fill="#353736" transform="translate(295,344)"/>
<path d="M0 0 C10.23 0 20.46 0 31 0 C31 7.26 31 14.52 31 22 C37.93 22 44.86 22 52 22 C52 31.9 52 41.8 52 52 C45.07 52 38.14 52 31 52 C31 59.26 31 66.52 31 74 C20.77 74 10.54 74 0 74 C0 66.74 0 59.48 0 52 C-6.93 52 -13.86 52 -21 52 C-21 42.1 -21 32.2 -21 22 C-14.07 22 -7.14 22 0 22 C0 14.74 0 7.48 0 0 Z " fill="#353736" transform="translate(580,508)"/>
</svg>
