<?xml version="1.0" encoding="UTF-8"?>
<svg version="1.1" xmlns="http://www.w3.org/2000/svg" width="513" height="513">
<path d="M0 0 C0.83144531 -0.02578125 1.66289062 -0.0515625 2.51953125 -0.078125 C8.7917074 0.69327002 12.90388006 4.54011041 17.15771484 8.89550781 C18.00294456 9.74248985 18.00294456 9.74248985 18.86524963 10.60658264 C20.71672188 12.46521103 22.55743836 14.33412741 24.3984375 16.203125 C25.69275803 17.50559188 26.98782449 18.80731788 28.28359985 20.1083374 C31.69002557 23.53185321 35.08778807 26.96383264 38.4833374 30.39813232 C43.90799079 35.88202455 49.3452828 41.35337608 54.78337479 46.82393646 C56.67158551 48.72598462 58.55585211 50.63186962 60.43954468 52.53839111 C65.66024518 57.80994549 70.86636952 63.00891441 76.52267456 67.81918335 C80.73386604 71.43844741 84.58386339 75.4604382 88.5078125 79.38500977 C90.07535207 80.9503339 91.65076961 82.50744291 93.2265625 84.06445312 C94.23225855 85.06721942 95.23748435 86.07045763 96.2421875 87.07421875 C97.14437012 87.97229248 98.04655273 88.87036621 98.97607422 89.7956543 C103.47477307 94.78852464 103.62378319 98.7666812 103.50390625 105.3359375 C102.93384294 110.5861502 100.40862422 113.14800985 96.625 116.5625 C93.26947122 118.88555838 90.50044196 119.46171665 86.5 119.625 C85.69175781 119.67398438 84.88351562 119.72296875 84.05078125 119.7734375 C74.26746688 117.9849462 67.05695284 108.5033014 60.375 101.73046875 C59.15397974 100.50384457 57.93228899 99.27788749 56.70996094 98.05256653 C53.51402437 94.84524388 50.32720534 91.62901188 47.14227295 88.4107666 C43.88291484 85.12057246 40.61491477 81.83898623 37.34765625 78.55664062 C30.95250499 72.12943542 24.56696362 65.69277398 18.1875 59.25 C18.18863916 59.89097645 18.18977832 60.53195291 18.190952 61.19235289 C18.25806677 99.17056186 18.30954983 137.14876207 18.34069599 175.12701819 C18.34444817 179.68575311 18.34833113 184.24448791 18.35229492 188.80322266 C18.35308185 189.71079568 18.35386878 190.61836871 18.35467956 191.55344395 C18.36773823 206.25429039 18.39139462 220.95510168 18.41895839 235.65592726 C18.44699975 250.73709953 18.46367357 265.81825338 18.46976548 280.89945066 C18.47388456 290.20751548 18.4869006 299.51548097 18.5112494 308.82351522 C18.52709092 315.20389064 18.53190395 321.5842146 18.52800413 327.96460827 C18.52608011 331.64735433 18.52905722 335.32992663 18.54511642 339.01264191 C18.5623959 343.00431161 18.55647182 346.99575421 18.54826355 350.98745728 C18.55700207 352.15282851 18.5657406 353.31819974 18.57474393 354.51888525 C18.5386985 360.98130894 18.24525541 365.89761711 13.6875 370.89453125 C7.95902849 375.35498172 3.28518751 376.0158599 -3.8125 375.25 C-9.15443947 373.48615206 -12.12627 370.10587731 -14.8125 365.25 C-15.7988532 362.29094041 -15.9419934 360.36337689 -15.9511652 357.27728558 C-15.95663964 356.24421172 -15.96211409 355.21113786 -15.96775442 354.14675874 C-15.96873253 353.00791743 -15.96971064 351.86907613 -15.97071838 350.69572449 C-15.97565636 349.48830087 -15.98059434 348.28087726 -15.98568195 347.03686506 C-15.99841486 343.67776546 -16.00668772 340.31870754 -16.01310861 336.95959342 C-16.02110782 333.33704351 -16.03481085 329.71451472 -16.04782104 326.09197998 C-16.07246714 318.98024565 -16.09185616 311.86850603 -16.10957379 304.75675144 C-16.13053562 296.43608715 -16.15699378 288.11544303 -16.18374526 279.79479567 C-16.23149093 264.89486435 -16.27470255 249.99492338 -16.31518555 235.0949707 C-16.35421303 220.73363387 -16.39562789 206.37230711 -16.44018555 192.01098633 C-16.44290982 191.13272338 -16.44563409 190.25446044 -16.44844092 189.34958347 C-16.45940908 185.81606652 -16.47038811 182.28254961 -16.48138306 178.74903275 C-16.53198362 162.47201575 -16.58067115 146.19499291 -16.62890625 129.91796875 C-16.63132219 129.10426118 -16.63373813 128.2905536 -16.63622728 127.45218822 C-16.65057007 122.61747266 -16.66476819 117.78275669 -16.67879411 112.94804019 C-16.6833726 111.37568693 -16.68798996 109.80333378 -16.69264696 108.23098075 C-16.71703297 99.98661831 -16.73858703 91.74227183 -16.75095463 83.49788189 C-16.75543368 80.68921058 -16.7601213 77.88053967 -16.7649231 75.0718689 C-16.76602601 74.39389995 -16.76712893 73.71593101 -16.76826527 73.01741756 C-16.78281539 64.7945783 -16.8302551 56.57283938 -16.92544109 48.35049766 C-16.97473881 44.00443549 -17.01034013 39.65831687 -17.04434192 35.3121115 C-17.0637499 33.36110216 -17.09030499 31.41014775 -17.12481606 29.45934713 C-17.17105202 26.84250437 -17.19304886 24.22650199 -17.20957947 21.60932922 C-17.22963999 20.86915058 -17.24970052 20.12897194 -17.27036893 19.36636364 C-17.26816708 13.93340354 -15.79646975 9.79906592 -12.8125 5.25 C-8.75204737 1.38761823 -5.54626193 0.10223524 0 0 Z " fill="#000000" transform="translate(297.8125,68.75)"/>
<path d="M0 0 C5.28410649 2.75642784 8.08002087 6.76740637 9.9296875 12.31640625 C10.08437444 15.31985054 10.18307323 18.30305118 10.23771667 21.30867004 C10.26797398 22.7115777 10.26797398 22.7115777 10.29884255 24.14282691 C10.36437432 27.30712582 10.42148773 30.47150163 10.47729492 33.63598633 C10.49811453 34.75056768 10.51893414 35.86514903 10.54038465 37.01350558 C11.1150498 68.27085339 11.13239989 99.53182869 11.16532996 130.79337403 C11.16888277 134.03781582 11.17302021 137.28225674 11.17716962 140.52669781 C11.19551933 154.90237353 11.21127727 169.27804952 11.21906757 183.65373516 C11.22097586 187.11705718 11.22289654 190.58037918 11.22485352 194.04370117 C11.22533726 194.90396531 11.225821 195.76422945 11.2263194 196.6505622 C11.23469385 210.71311676 11.26020611 224.77558838 11.29243419 238.83810642 C11.32548631 253.38076082 11.34351155 267.9233726 11.34671181 282.46606475 C11.34887025 290.5910999 11.35753014 298.71601107 11.38317299 306.84100914 C11.40484788 313.72143625 11.41294326 320.60170868 11.40320621 327.48216607 C11.39866271 330.98531877 11.40055367 334.4881517 11.41996765 337.99126053 C11.43760851 341.78921911 11.43061928 345.58636456 11.41743469 349.38432312 C11.42840394 350.48573487 11.43937318 351.58714663 11.45067483 352.7219345 C11.39723101 359.09048412 10.66402436 364.03032159 6.9296875 369.31640625 C2.86923487 373.17878802 -0.33655057 374.46417101 -5.8828125 374.56640625 C-6.71425781 374.5921875 -7.54570312 374.61796875 -8.40234375 374.64453125 C-15.50480634 373.77102194 -19.8365903 368.96186094 -24.60107422 364.11035156 C-25.3303714 363.37988617 -26.05966858 362.64942078 -26.81106567 361.89682007 C-29.21442276 359.48629039 -31.60708181 357.06542001 -34 354.64453125 C-35.67546736 352.96092183 -37.35167713 351.27805094 -39.02859497 349.59588623 C-43.44112372 345.16624817 -47.84501363 340.7281248 -52.2467041 336.28771973 C-59.28217166 329.19305838 -66.3302632 322.11094491 -73.37909317 315.0295639 C-75.83233266 312.56244007 -78.28166847 310.09149348 -80.73043823 307.61993408 C-82.24712448 306.09321474 -83.76389464 304.56657874 -85.28076172 303.04003906 C-85.95322937 302.359263 -86.62569702 301.67848694 -87.31854248 300.9770813 C-91.15843259 297.11947669 -95.1051135 293.4675018 -99.25847054 289.94843674 C-103.3355428 286.27598275 -107.79117264 282.16762058 -108.34375 276.5234375 C-108.68142182 265.2374064 -108.68142182 265.2374064 -104.53125 260.6171875 C-99.33191651 255.98783442 -94.19086018 255.87001088 -87.484375 255.52734375 C-82.40567953 256.70113835 -79.70215838 259.70442914 -76.0703125 263.31640625 C-75.31572754 264.05681152 -74.56114258 264.7972168 -73.78369141 265.56005859 C-70.54070583 268.77631444 -67.34051223 272.03384376 -64.13671875 275.2890625 C-63.34136719 276.09214844 -62.54601562 276.89523437 -61.7265625 277.72265625 C-61.02337891 278.43744141 -60.32019531 279.15222656 -59.59570312 279.88867188 C-57.67728857 281.7329018 -55.751257 283.44309293 -53.72497559 285.1595459 C-47.54475134 290.55007226 -41.84403404 296.43663116 -36.0703125 302.25390625 C-34.90257876 303.42666634 -33.73461176 304.59919423 -32.56640625 305.77148438 C-29.73168016 308.61712314 -26.90012426 311.46588078 -24.0703125 314.31640625 C-24.07145166 313.67754577 -24.07259082 313.03868528 -24.0737645 312.38046539 C-24.14087947 274.52751321 -24.19236243 236.67456982 -24.22350849 198.82157033 C-24.22726067 194.27785668 -24.23114363 189.73414316 -24.23510742 185.19042969 C-24.23589435 184.28584727 -24.23668128 183.38126486 -24.23749206 182.44927086 C-24.25055068 167.79692331 -24.27420704 153.14461102 -24.30177089 138.4922844 C-24.32981238 123.46083268 -24.3464861 108.42939944 -24.35257798 93.39792264 C-24.35669703 84.12056713 -24.36971292 74.8433113 -24.3940619 65.56598647 C-24.40990359 59.2066358 -24.41471642 52.84733675 -24.41081663 46.48796777 C-24.40889264 42.81737309 -24.41186942 39.14695273 -24.42792892 35.47638893 C-24.44520887 31.4978562 -24.4392842 27.51955132 -24.43107605 23.54098511 C-24.43981457 22.37950482 -24.4485531 21.21802454 -24.45755643 20.02134788 C-24.42144743 13.56858473 -24.12105395 8.66109935 -19.5703125 3.671875 C-13.70476801 -0.89530678 -7.24388786 -2.39184977 0 0 Z " fill="#000000" transform="translate(220.0703125,69.68359375)"/>
</svg>
