<?xml version="1.0" encoding="UTF-8"?>
<svg version="1.1" xmlns="http://www.w3.org/2000/svg" width="512" height="512">
<path d="M0 0 C1.21430266 -0.00453111 2.42860532 -0.00906223 3.67970502 -0.01373065 C7.01977278 -0.02413555 10.35962371 -0.02571178 13.69969201 -0.02334189 C17.31405159 -0.02293124 20.92837988 -0.03399644 24.54272461 -0.04345703 C31.61289674 -0.06001506 38.6830355 -0.06556423 45.7532254 -0.06668179 C51.50558702 -0.06763481 57.25793771 -0.07175777 63.01029587 -0.07808304 C79.34977898 -0.0956819 95.6892359 -0.10492413 112.02872856 -0.10342209 C113.34788698 -0.10330222 113.34788698 -0.10330222 114.69369507 -0.10317993 C115.57421848 -0.10309817 116.45474188 -0.10301641 117.36194782 -0.10293217 C131.62143322 -0.10211984 145.88081286 -0.12124776 160.14026769 -0.14945666 C174.81165652 -0.17824945 189.48299389 -0.19199342 204.15441167 -0.19026911 C212.37924825 -0.18960738 220.60397396 -0.19500416 228.82878494 -0.21662521 C235.83326664 -0.23492151 242.83758721 -0.23911562 249.84208257 -0.22560637 C253.40884721 -0.21911875 256.97530351 -0.21880484 260.54203796 -0.23631287 C287.86682689 -0.36182298 309.13871529 2.717996 329.65414429 22.34945679 C348.77060917 42.35678605 349.83454362 67.67019064 349.60336304 93.76742554 C349.59330304 95.76611892 349.58418259 97.76481726 349.57601929 99.76351929 C349.55426829 104.59828009 349.51990864 109.43279599 349.47836304 114.26742554 C350.42308472 114.56310425 351.3678064 114.85878296 352.34115601 115.16342163 C358.57736318 117.35798419 362.93737812 122.73374937 365.91586304 128.51742554 C368.43998 133.99577805 368.6361826 139.1061755 368.65536499 145.08407593 C368.66193619 145.97407288 368.66850739 146.86406982 368.67527771 147.78103638 C368.69498189 150.7257191 368.70666918 153.67035079 368.71664429 156.61508179 C368.72071981 157.62371214 368.72479534 158.63234249 368.72899437 159.6715374 C368.74984648 165.01396351 368.76414988 170.35636403 368.77352905 175.69882202 C368.78456965 181.19744702 368.81894506 186.6956647 368.85870075 192.19414616 C368.88494265 196.4383058 368.89322779 200.68236969 368.89681053 204.92660332 C368.90165977 206.95224179 368.9132259 208.97787646 368.93184853 211.00343513 C369.1495313 236.25756858 369.1495313 236.25756858 360.06039429 245.82992554 C356.80038257 248.79210902 354.05854526 251.26742554 349.47836304 251.26742554 C349.48883667 252.52176392 349.4993103 253.77610229 349.51010132 255.06845093 C349.54673682 259.79303042 349.56941937 264.51759779 349.58822632 269.24227905 C349.59818592 271.27387616 349.61175847 273.30545932 349.62924194 275.33700562 C349.83903106 300.36978401 347.92913091 323.97920639 329.72909546 343.08847046 C315.72474672 357.26825881 299.04235181 365.46831266 278.87328041 365.6686995 C276.69017367 365.67418708 274.50739934 365.66509949 272.3243103 365.65560913 C270.73461041 365.65968326 269.14491335 365.66502983 267.55522156 365.67153931 C263.27466936 365.68511097 258.99433623 365.67995875 254.71378064 365.67040205 C250.22115351 365.66276173 245.72854407 365.66986227 241.23591614 365.67456055 C233.70187029 365.6800015 226.167913 365.67286614 218.63388062 365.65853882 C209.92791931 365.64217394 201.22216837 365.64753523 192.51621205 365.66401803 C185.0254898 365.67763087 177.53483084 365.67955481 170.04410022 365.67170203 C165.57668826 365.66702973 161.10937526 365.66638933 156.64196968 365.67631149 C152.44835092 365.6849774 148.2550041 365.67896631 144.06141472 365.66162872 C142.52351712 365.65766364 140.9855966 365.65879832 139.44770813 365.66541672 C137.34784099 365.67362075 135.24884434 365.66332618 133.14903259 365.64837646 C131.97458367 365.64724539 130.80013475 365.64611431 129.59009647 365.64494896 C126.10529057 365.22216344 124.27057538 364.36257786 121.47836304 362.26742554 C118.02345175 357.5986265 116.86810867 354.15112624 117.15414429 348.34164429 C117.90569391 343.53353769 120.92188387 340.37934481 124.47836304 337.26742554 C127.73064619 336.18333115 130.09954676 336.1373387 133.52215576 336.12939453 C134.78644409 336.12394119 136.05073242 336.11848785 137.35333252 336.11286926 C138.75747675 336.11174944 140.16162105 336.11069892 141.56576538 336.10971069 C143.04263459 336.10504188 144.51950237 336.09989821 145.99636841 336.09431458 C149.18023926 336.08303105 152.36410073 336.07459775 155.54798508 336.06819534 C160.59257221 336.05750317 165.63709253 336.03725168 170.68164062 336.01507568 C185.02807528 335.95320335 199.37450708 335.89925622 213.72103882 335.86605835 C221.6421616 335.84764845 229.56317336 335.81862762 237.48421443 335.77805364 C241.67143359 335.75707903 245.85851337 335.74154012 250.04578781 335.73924637 C253.99392582 335.73708128 257.94177435 335.72102486 261.88982391 335.69485664 C263.32920098 335.68773068 264.76861338 335.6855296 266.208004 335.68895912 C282.28473589 335.72110952 295.17491071 333.01820577 307.47836304 322.26742554 C315.83958089 311.27839636 318.54533212 300.85126366 318.79476929 287.27523804 C318.82594093 285.85632767 318.82594093 285.85632767 318.85774231 284.40875244 C318.92283889 281.40338013 318.9819364 278.39792452 319.04086304 275.39242554 C319.08408624 273.34814628 319.12770172 271.30387528 319.17172241 269.25961304 C319.27847914 264.26230138 319.37985774 259.26490638 319.47836304 254.26742554 C318.82040741 254.27408737 318.16245178 254.28074921 317.48455811 254.28761292 C310.57271259 254.35451471 303.66096058 254.39945139 296.74887085 254.43222046 C294.17689267 254.44721131 291.60493964 254.46761082 289.03305054 254.4937439 C261.55447311 254.76575621 261.55447311 254.76575621 250.47836304 251.26742554 C249.57755005 250.98753784 248.67673706 250.70765015 247.74862671 250.41928101 C231.59845571 245.04096137 219.236428 231.98282043 211.47836304 217.26742554 C206.65257644 206.58678449 205.27058037 196.87786863 205.23812866 185.30477905 C205.22850414 183.23526539 205.19748146 181.16678136 205.16586304 179.09750366 C205.01731994 160.78231837 210.66216647 145.75458073 222.74398804 132.02523804 C234.41105246 120.25817021 249.46951464 112.29841957 266.23495483 111.92684937 C268.71588119 111.92731767 271.19684399 111.94386601 273.67758179 111.97445679 C275.6518792 111.98082405 275.6518792 111.98082405 277.6660614 111.98731995 C281.12668681 111.99864963 284.58692067 112.02801045 288.0473938 112.06143188 C291.59399116 112.0923927 295.1406532 112.10588023 298.68734741 112.12094116 C305.61784448 112.15289483 312.54808484 112.20394273 319.47836304 112.26742554 C319.40893296 106.22048783 319.32070514 100.17420555 319.21591187 94.1277771 C319.18289289 92.07576846 319.15479126 90.02367402 319.13192749 87.9715271 C318.93599325 70.84604117 318.46501072 56.30926618 306.40805054 42.97836304 C299.02043584 35.90849521 289.722556 31.15392823 279.39694977 31.13320446 C278.36530087 31.12874662 277.33365197 31.12428877 276.27074099 31.11969584 C275.13885709 31.1198802 274.0069732 31.12006457 272.84078979 31.12025452 C271.63710739 31.11657783 270.43342498 31.11290114 269.19326735 31.10911304 C265.85059252 31.09999359 262.50796675 31.09537812 259.16528416 31.09272373 C255.56044822 31.08881712 251.95562644 31.07923892 248.35079956 31.07051086 C239.64340022 31.05075482 230.93599973 31.04068059 222.22858357 31.03178307 C218.12580238 31.0273981 214.02302248 31.02203177 209.92024231 31.0167942 C196.27708453 30.99978154 182.63392756 30.98528863 168.9907608 30.97804546 C165.45082091 30.97613563 161.91088103 30.97421529 158.37094116 30.97225952 C157.49112892 30.97177578 156.61131668 30.97129204 155.70484346 30.97079364 C141.46093996 30.96249808 127.21712058 30.93716934 112.97325379 30.90467884 C98.34166696 30.87157676 83.71012282 30.85359379 69.07849836 30.85040122 C60.86656447 30.84823886 52.65475317 30.83953061 44.44285583 30.81394005 C37.44721928 30.79218984 30.4517351 30.78420373 23.45606858 30.79390683 C19.88996576 30.79843931 16.32417703 30.79662742 12.75811768 30.77714539 C8.88255155 30.75615645 5.00741357 30.76653852 1.13180542 30.77967834 C-0.53925176 30.76322448 -0.53925176 30.76322448 -2.24406767 30.74643821 C-14.79259561 30.84874363 -25.22818195 34.79484352 -34.52163696 43.26742554 C-45.81899598 55.74071784 -46.09206055 69.42808639 -46.00749207 85.36684418 C-45.99008693 88.74757807 -45.99781407 92.12746777 -46.01174927 95.50820923 C-46.03696503 102.6780071 -46.03160055 109.84760144 -46.02163696 117.01742554 C-46.01008867 125.34541356 -46.01129698 133.67298721 -46.04570007 142.00092316 C-46.05277132 145.32247912 -46.03615109 148.64337081 -46.01858521 151.96487427 C-46.02429393 154.0081111 -46.03111163 156.05134524 -46.03921509 158.09457397 C-46.02790054 159.0100853 -46.016586 159.92559662 -46.00492859 160.86885071 C-46.06098823 166.7994746 -47.14829674 171.31721323 -50.52163696 176.26742554 C-54.25922995 179.48590839 -58.64047874 180.4251816 -63.52163696 180.26742554 C-68.92338402 178.5568723 -72.71125818 176.35170952 -75.61081219 171.41183281 C-76.6108067 169.05748808 -76.77538327 167.44182041 -76.78233337 164.89440918 C-76.78941818 164.02565659 -76.79650299 163.15690399 -76.80380249 162.26182556 C-76.80132507 161.31637375 -76.79884766 160.37092194 -76.79629517 159.39682007 C-76.8014061 158.39459915 -76.80651703 157.39237823 -76.81178284 156.35978699 C-76.82570226 153.03987682 -76.82471894 149.72017397 -76.82241821 146.40023804 C-76.82630655 144.08536706 -76.8306415 141.77049679 -76.83540344 139.45562744 C-76.84287268 134.59501845 -76.84257123 129.73448206 -76.83731079 124.87387085 C-76.83154411 118.67610219 -76.84837582 112.47863511 -76.87165546 106.28091621 C-76.88647234 101.49361461 -76.88725323 96.70638405 -76.88414574 91.91906357 C-76.88465591 89.63635541 -76.88983603 87.35364296 -76.89995766 85.07095718 C-76.99433833 60.78749663 -73.56173041 39.22129774 -55.89663696 21.07992554 C-40.41913086 5.83869865 -21.28011893 -0.05906526 0 0 Z M243.73617554 154.14633179 C236.69083256 162.82156754 234.81804449 171.72978494 234.97836304 182.70492554 C234.96289429 183.76002319 234.94742554 184.81512085 234.93148804 185.90219116 C234.98756143 197.29209928 238.04095394 205.82539376 245.97836304 214.03695679 C253.94982691 221.14899721 262.24188222 224.53167677 272.97421265 224.49447632 C273.69864594 224.49471739 274.42307924 224.49495846 275.16946507 224.49520683 C277.49000856 224.49372658 279.81022157 224.47855381 282.13070679 224.46273804 C283.57312872 224.45979359 285.01555279 224.45775563 286.45797729 224.45663452 C291.77730535 224.44619368 297.09658752 224.41827113 302.41586304 224.39242554 C314.31648804 224.35117554 326.21711304 224.30992554 338.47836304 224.26742554 C338.47836304 197.20742554 338.47836304 170.14742554 338.47836304 142.26742554 C326.35828987 141.97712438 314.2392047 141.68729988 302.11828613 141.44450378 C297.74684832 141.3565395 293.37562082 141.26782148 289.00473022 141.15560913 C263.97682503 140.52172551 263.97682503 140.52172551 243.73617554 154.14633179 Z " fill="#000000" transform="translate(126.52163696289063,51.732574462890625)"/>
<path d="M0 0 C0.86038879 -0.00701431 1.72077759 -0.01402863 2.60723877 -0.02125549 C5.36972339 -0.03866768 8.13199376 -0.04510785 10.89453125 -0.046875 C11.83732941 -0.04754974 12.78012756 -0.04822449 13.75149536 -0.04891968 C27.59346919 -0.0331592 41.12594255 0.263185 54.70703125 3.203125 C55.52026855 3.37473145 56.33350586 3.54633789 57.17138672 3.72314453 C75.07922744 7.63622279 94.9698363 14.24044136 106.70703125 29.203125 C110.64876457 35.72490195 112.82071409 41.55232005 112.84747314 49.21011353 C112.85318329 50.19396027 112.85889343 51.17780701 112.86477661 52.19146729 C112.8664534 53.79366119 112.8664534 53.79366119 112.86816406 55.42822266 C112.87312897 56.5622049 112.87809387 57.69618713 112.88320923 58.86453247 C112.89781116 62.61542367 112.90463034 66.36627255 112.91015625 70.1171875 C112.91591021 72.72927857 112.92166791 75.34136964 112.9274292 77.95346069 C112.93699332 82.73274687 112.94289422 87.51202397 112.94592595 92.29131854 C112.95039849 99.30154627 112.96791279 106.31157822 112.99692655 113.32174647 C113.02125376 119.41340598 113.02887546 125.50498545 113.0306015 131.59669113 C113.03361935 134.17773884 113.0416184 136.7587859 113.05478668 139.33980179 C113.07193805 142.96056982 113.06994426 146.58086742 113.06347656 150.20166016 C113.07269135 151.25764404 113.08190613 152.31362793 113.09140015 153.40161133 C113.02792416 164.80811995 110.77714864 173.88799456 102.70703125 182.203125 C78.19292623 206.00538668 36.85369764 207.75321864 4.80859375 207.41796875 C-23.63670755 206.96792977 -57.66811211 201.80259255 -79.12890625 181.5 C-87.38238073 172.73999459 -88.59309975 164.02227794 -88.58349609 152.36791992 C-88.59021332 151.19302505 -88.59693054 150.01813019 -88.60385132 148.80763245 C-88.62281175 144.93290957 -88.62675455 141.0583601 -88.62890625 137.18359375 C-88.63175534 135.84311663 -88.63494763 134.50264019 -88.63847733 133.16216469 C-88.65695202 126.14153967 -88.6651512 119.12099032 -88.66357422 112.1003418 C-88.66237366 105.57862086 -88.68346546 99.0572313 -88.71506155 92.53559417 C-88.74130035 86.91749315 -88.75193834 81.29949987 -88.7506634 75.68133813 C-88.75015596 72.33416634 -88.75758495 68.98752309 -88.7770195 65.64037132 C-88.79669293 61.90214184 -88.79083498 58.16475781 -88.77880859 54.42651367 C-88.79004761 53.33267365 -88.80128662 52.23883362 -88.81286621 51.11184692 C-88.72240779 40.00365026 -85.03038654 31.19447349 -77.29296875 23.203125 C-57.24321499 5.74161218 -25.81565561 0.14141881 0 0 Z M-58.29296875 47.203125 C-46.77175804 60.64453749 -24.00732615 63.40150581 -7.29296875 65.203125 C-1.61186524 65.60616412 4.06626519 65.6385463 9.75927734 65.59423828 C12.20727181 65.57812342 14.65361646 65.59422919 17.1015625 65.61328125 C38.58320249 65.642483 64.21920409 62.80040185 81.70703125 49.203125 C81.35446444 46.55887396 80.9934792 45.45201645 78.94921875 43.67578125 C61.51008448 33.28712205 39.77085708 29.74539056 19.70703125 29.203125 C18.49660156 29.16316406 17.28617187 29.12320312 16.0390625 29.08203125 C-7.00888256 28.6890372 -40.90147862 29.81163487 -58.29296875 47.203125 Z M-58.29296875 83.203125 C-59.79295028 95.40614195 -59.79295028 95.40614195 -56.7109375 106.7578125 C-54.292251 108.37027017 -52.04885951 109.28318429 -49.29296875 110.203125 C-48.39964844 110.62851562 -47.50632812 111.05390625 -46.5859375 111.4921875 C-28.26819667 120.06218389 -7.96684462 121.60846218 11.95703125 121.515625 C12.77096344 121.51380219 13.58489563 121.51197937 14.42349243 121.51010132 C26.41352376 121.46491368 38.00859407 121.05263832 49.70703125 118.203125 C50.4748291 118.02620117 51.24262695 117.84927734 52.03369141 117.66699219 C61.50319004 115.44676959 70.6513159 112.88865695 78.70703125 107.203125 C79.45726562 106.69394531 80.2075 106.18476563 80.98046875 105.66015625 C83.75610856 101.71020729 83.12794134 97.64657899 82.95703125 92.953125 C82.93898437 92.01726562 82.9209375 91.08140625 82.90234375 90.1171875 C82.85528798 87.81145485 82.78956838 85.50781555 82.70703125 83.203125 C80.81984375 83.7909375 80.81984375 83.7909375 78.89453125 84.390625 C76.83370892 85.00048967 74.77089486 85.60363304 72.70703125 86.203125 C72.05234863 86.39600098 71.39766602 86.58887695 70.72314453 86.78759766 C27.73201398 99.31071656 -15.90041479 96.01999067 -58.29296875 83.203125 Z M-58.29296875 139.203125 C-59.79295028 151.40614195 -59.79295028 151.40614195 -56.7109375 162.7578125 C-54.29303738 164.36974591 -52.04743052 165.28234778 -49.29296875 166.203125 C-48.41125 166.62851562 -47.52953125 167.05390625 -46.62109375 167.4921875 C-38.23743388 171.45242462 -29.34579816 173.44326341 -20.29296875 175.203125 C-19.13152344 175.43128906 -17.97007813 175.65945313 -16.7734375 175.89453125 C12.38005412 180.49094724 54.59926185 180.4775294 79.52734375 162.6875 C81.69282133 160.76032857 82.59365208 159.68442631 83.26293945 156.84326172 C83.3957176 154.13844641 83.31991113 151.53013146 83.14453125 148.828125 C83.0971582 147.43787109 83.0971582 147.43787109 83.04882812 146.01953125 C82.96672431 143.74408263 82.852029 141.47528754 82.70703125 139.203125 C81.46953125 139.595 80.23203125 139.986875 78.95703125 140.390625 C36.72755364 152.87020452 -12.49164188 156.52884254 -54.2890625 139.9375 C-56.25024188 139.08842723 -56.25024188 139.08842723 -58.29296875 139.203125 Z " fill="#000000" transform="translate(105.29296875,252.796875)"/>
<path d="M0 0 C0.87837524 -0.0065712 1.75675049 -0.0131424 2.66174316 -0.01991272 C5.5709644 -0.03963679 8.48013406 -0.05130586 11.3894043 -0.0612793 C12.87998887 -0.06739259 12.87998887 -0.06739259 14.40068626 -0.07362938 C19.65953743 -0.09448552 24.91836252 -0.10878967 30.17724609 -0.11816406 C35.6080125 -0.12923234 41.03836962 -0.16363851 46.46899128 -0.20333576 C50.64603944 -0.22948183 54.82298973 -0.23785408 59.00011253 -0.24144554 C61.00197301 -0.24631606 63.00382897 -0.25794325 65.00560951 -0.27648354 C67.80875729 -0.30083385 70.61084131 -0.29991754 73.4140625 -0.29296875 C74.65101112 -0.31218384 74.65101112 -0.31218384 75.91294861 -0.33178711 C82.12533873 -0.27573504 85.48266277 1.66108792 90.21362305 5.73950195 C93.05742928 9.18200423 92.72947353 13.43615496 92.6862793 17.66918945 C92.16240406 22.27642098 89.72809736 24.97443148 86.40112305 27.98950195 C81.90891055 30.65675312 77.08210254 30.33682062 71.99584961 30.35400391 C71.14980164 30.3605751 70.30375366 30.3671463 69.43206787 30.37391663 C66.63529363 30.39360865 63.838573 30.40530318 61.04174805 30.4152832 C59.60593006 30.42139649 59.60593006 30.42139649 58.14110565 30.42763329 C53.07446001 30.44847669 48.00784132 30.46278583 42.94116211 30.47216797 C37.71799939 30.48322797 32.49526319 30.51762823 27.27225113 30.55733967 C23.24696073 30.5835295 19.22177161 30.59186192 15.1964035 30.59544945 C13.27155426 30.60030936 11.34670936 30.61190633 9.42194366 30.63048744 C6.72228008 30.6549291 4.02371579 30.65390479 1.32397461 30.64697266 C0.53615601 30.65978271 -0.2516626 30.67259277 -1.06335449 30.68579102 C-6.66724244 30.63360603 -10.89048015 29.2514799 -15.59887695 26.17700195 C-18.57637876 22.77113314 -19.50170264 18.98216054 -20.03637695 14.55200195 C-19.37480924 9.4484796 -17.88261249 6.36445733 -14.09887695 2.86450195 C-9.54351476 -0.21036752 -5.30108248 0.01715904 0 0 Z " fill="#000000" transform="translate(147.598876953125,126.822998046875)"/>
</svg>
