<?xml version="1.0" encoding="UTF-8"?>
<svg version="1.1" xmlns="http://www.w3.org/2000/svg" width="512" height="512">
<path d="M0 0 C2.54567251 3.10253837 2.95475115 5.53252427 3 9.4375 C2.53776811 14.02073034 1.7543578 18.53054117 0.9375 23.0625 C0.70780518 24.34979004 0.47811035 25.63708008 0.24145508 26.96337891 C-3.75417194 48.58250307 -8.70188718 68.70037295 -25 84.4375 C-25.6084375 85.03175781 -26.216875 85.62601562 -26.84375 86.23828125 C-35.03008771 93.73622238 -44.66724404 96.91323109 -55.7109375 96.7734375 C-61.39096797 96.19329187 -66.65152787 94.36985122 -72 92.4375 C-72.23332031 93.08976562 -72.46664062 93.74203125 -72.70703125 94.4140625 C-74.40807622 98.39173262 -76.54463157 102.05898665 -78.6875 105.8125 C-83.67817145 114.66475222 -88.77675508 123.76776525 -92 133.4375 C-91.06542969 133.46328125 -90.13085938 133.4890625 -89.16796875 133.515625 C-57.42791232 134.88614755 -30.06455447 146.85177747 -8.07421875 169.95703125 C12.75563347 192.8666191 19.1649484 221.8546438 18.19091797 252.04150391 C16.65993806 279.27415158 2.43026649 304.73942041 -17.64111328 322.79931641 C-36.06597952 338.69670478 -59.57551432 348.54154598 -84 349.4375 C-84.75667969 349.47746094 -85.51335937 349.51742188 -86.29296875 349.55859375 C-115.79328233 350.39863618 -143.21451267 338.72639555 -164.68359375 318.79882812 C-176.17881794 307.685759 -184.90968861 293.95745226 -190.3125 278.9375 C-190.65812988 277.9789209 -190.65812988 277.9789209 -191.01074219 277.00097656 C-194.94217168 265.35678673 -196.53658234 253.88822326 -196.4375 241.625 C-196.43065186 240.31345947 -196.42380371 239.00191895 -196.41674805 237.65063477 C-196.25265106 227.71324068 -195.1721023 218.83977707 -192 209.4375 C-191.43925781 207.73013672 -191.43925781 207.73013672 -190.8671875 205.98828125 C-180.93832413 178.20719002 -160.886481 156.2898292 -134.4375 143.5625 C-133.81987793 143.26472656 -133.20225586 142.96695313 -132.56591797 142.66015625 C-129.42351822 141.23680978 -126.72837524 140.4028306 -123.296875 139.96484375 C-118.98821277 139.40994028 -116.62405222 138.90272355 -113 136.4375 C-108.42622776 129.52762402 -104.41845972 120.62984368 -103 112.4375 C-103.92664456 109.2796691 -105.16365829 107.19201257 -107 104.4375 C-110.48078057 105.78337478 -110.48078057 105.78337478 -113.80859375 107.4609375 C-121.61219559 111.6208916 -130.332304 111.74068452 -138.87109375 109.77734375 C-145.11027502 107.52890245 -150.05027462 103.77546157 -155 99.4375 C-155.90878906 98.68726563 -155.90878906 98.68726563 -156.8359375 97.921875 C-169.55772708 86.52407257 -179.26747553 62.43143353 -181.5 45.6875 C-181 42.4375 -181 42.4375 -178.9375 39.5625 C-169.71911515 32.89388117 -150.20671589 35.52289638 -139.44921875 36.93359375 C-124.47802667 39.68530818 -110.40611457 45.8771465 -100.9375 58.25 C-96.02233414 66.0564399 -94.36239123 73.30092546 -96.0625 82.375 C-96.32160156 83.41527344 -96.58070313 84.45554687 -96.84765625 85.52734375 C-97.35919804 89.12396779 -97.35919804 89.12396779 -93 93.4375 C-90.36 89.4775 -87.72 85.5175 -85 81.4375 C-86.11375 79.6225 -87.2275 77.8075 -88.375 75.9375 C-93.43658979 67.20497944 -95.47926461 58.96094733 -93.5 48.89453125 C-90.54706618 38.07269991 -84.78654734 30.36946673 -77 22.4375 C-76.09314453 21.49390625 -76.09314453 21.49390625 -75.16796875 20.53125 C-60.72352452 6.68472395 -19.14907261 -9.97347532 0 0 Z M-158.2421875 182.8671875 C-167.41285309 193.75066223 -173.25247262 205.79824336 -177 219.4375 C-177.18546387 220.10048096 -177.37092773 220.76346191 -177.56201172 221.4465332 C-183.38426878 244.3693981 -177.90658137 268.11200879 -166.875 288.4375 C-162.75273993 295.2781268 -157.61546926 300.81423148 -152 306.4375 C-151.195625 307.25347656 -150.39125 308.06945312 -149.5625 308.91015625 C-133.0339581 324.7590706 -109.51028599 332.93621396 -86.77734375 332.5859375 C-59.65538175 331.13638116 -37.17081859 319.48381763 -19 299.4375 C-2.32707327 279.30673836 2.52453566 254.98074186 1 229.4375 C-1.69831659 206.49522776 -14.42025411 184.89986154 -32.4609375 170.60546875 C-72.3887635 140.50475449 -124.82953679 146.66044753 -158.2421875 182.8671875 Z " fill="#000000" transform="translate(345,53.5625)"/>
<path d="M0 0 C2.52242453 2.21045046 4.94801848 4.48130264 7.33984375 6.83203125 C7.96632813 7.445625 8.5928125 8.05921875 9.23828125 8.69140625 C23.23888013 23.51556977 28.87117981 43.57502134 28.5546875 63.56640625 C27.82464811 83.5359308 18.79516374 103.09947726 4.33984375 116.83203125 C-13.29126086 132.05889432 -33.19965725 138.50520078 -56.25732422 137.06835938 C-62.6108371 136.44346601 -68.60406011 134.79175674 -74.66015625 132.83203125 C-75.58054688 132.54328125 -76.5009375 132.25453125 -77.44921875 131.95703125 C-95.87690497 125.40496504 -109.47660926 110.69961936 -118.47265625 93.83203125 C-127.3753004 74.94856806 -128.37589805 53.33066183 -121.55859375 33.65234375 C-117.12474772 22.41039866 -111.12386034 13.43726885 -102.66015625 4.83203125 C-101.97179687 4.13078125 -101.2834375 3.42953125 -100.57421875 2.70703125 C-73.21931341 -23.32588981 -28.85324553 -23.51475958 0 0 Z M-53.03515625 8.20703125 C-55.52978667 12.23681885 -54.97751513 16.21269639 -54.66015625 20.83203125 C-55.48515625 21.01765625 -56.31015625 21.20328125 -57.16015625 21.39453125 C-63.73571277 24.09520625 -68.30811055 28.20578067 -71.16015625 34.76953125 C-73.64568386 42.11515303 -73.31154565 47.72220638 -69.8515625 54.7265625 C-66.3913274 60.84153536 -62.31217456 64.49854546 -55.66015625 66.83203125 C-52.25586875 67.61732942 -48.85864694 68.31907234 -45.41796875 68.92578125 C-42.66015625 69.83203125 -42.66015625 69.83203125 -41.265625 71.703125 C-40.1636508 75.57780847 -40.79799721 79.25985889 -42.72265625 82.76953125 C-45.91440438 84.51984474 -49.16697308 84.48657247 -52.66015625 83.83203125 C-54.34271755 82.51881267 -56.01012797 81.18590061 -57.66015625 79.83203125 C-61.65844035 79.27086857 -63.71025944 79.19876671 -67.09765625 81.45703125 C-68.8128656 83.77489934 -68.8128656 83.77489934 -69.34765625 86.64453125 C-68.32817865 91.37120013 -65.38628528 93.89353925 -61.66015625 96.83203125 C-58.96057597 98.41880745 -57.8618641 98.83203125 -54.66015625 98.83203125 C-54.71816406 99.49589844 -54.77617187 100.15976562 -54.8359375 100.84375 C-55.07437398 105.51029252 -55.189308 108.03830363 -52.53515625 112.01953125 C-49.78601067 114.10979215 -49.78601067 114.10979215 -46.53515625 113.83203125 C-43.67579124 112.83746951 -42.4223224 112.24341651 -40.66015625 109.83203125 C-39.69945191 106.94991823 -39.55433742 105.13353081 -39.59765625 102.14453125 C-39.60667969 101.33628906 -39.61570312 100.52804687 -39.625 99.6953125 C-39.63660156 99.08042969 -39.64820313 98.46554687 -39.66015625 97.83203125 C-38.97953125 97.66703125 -38.29890625 97.50203125 -37.59765625 97.33203125 C-32.05608397 94.50229221 -28.08073557 89.50268144 -25.72265625 83.76953125 C-23.62636949 77.02210825 -24.57431094 71.64528079 -27.33203125 65.265625 C-30.81990691 58.87460578 -35.73143005 55.02612788 -42.66015625 52.83203125 C-45.5057739 52.34443946 -48.3408556 51.90295186 -51.20703125 51.5546875 C-54.27838087 50.64991094 -55.09844819 49.5802318 -56.66015625 46.83203125 C-57.16015625 43.89453125 -57.16015625 43.89453125 -56.66015625 40.83203125 C-54.27970163 37.61141617 -52.78922342 36.08293507 -48.84765625 35.20703125 C-45.6544712 35.83314597 -44.29077394 36.60571122 -41.66015625 38.39453125 C-38.78756474 40.32790068 -37.93537772 40.82683839 -34.34765625 40.89453125 C-31.15825325 39.63360448 -30.0648876 38.97201897 -28.66015625 35.83203125 C-28.52492017 32.18065711 -28.73499241 29.86563076 -31.2265625 27.08203125 C-33.58934951 25.03000746 -35.85648297 23.23386789 -38.66015625 21.83203125 C-39.22957901 18.8041483 -39.55569357 15.7756911 -39.90234375 12.71484375 C-40.41832019 9.75464123 -40.41832019 9.75464123 -42.54296875 7.9765625 C-46.34219205 5.92273883 -49.32490406 6.05899051 -53.03515625 8.20703125 Z " fill="#000000" transform="translate(304.66015625,235.16796875)"/>
<path d="M0 0 C5.79816365 5.09272041 9.47532266 9.92319253 10.27734375 17.68359375 C10.66822294 25.16750014 9.50384952 30.91547252 5 37 C-0.78467122 42.62139421 -6.45013714 45.29090208 -14.5625 45.1875 C-15.67753906 45.18105469 -16.79257813 45.17460937 -17.94140625 45.16796875 C-20.47559459 45.02879876 -22.58691993 44.73749391 -25 44 C-45.28584273 66.99430675 -57.0074161 99.48883392 -58 130 C-58.03996094 130.98355469 -58.07992187 131.96710938 -58.12109375 132.98046875 C-58.81154564 165.67539652 -48.41946273 199.32756137 -28 225 C-27.30261719 225.89976562 -26.60523438 226.79953125 -25.88671875 227.7265625 C-1.14921645 258.92305741 34.56875439 277.74196169 73.9375 282.75 C75.62302501 282.86664533 77.31138673 282.9435561 79 283 C79.66483398 283.02578125 80.32966797 283.0515625 81.01464844 283.078125 C121.61123283 284.4630831 159.76221725 271.01642985 189.63891602 243.21630859 C217.70110297 216.55654127 234.26764161 180.76151888 236 142 C236.04125 141.09765625 236.0825 140.1953125 236.125 139.265625 C236.87378365 105.38316494 225.53400958 72.75974653 205 46 C204.84144531 46.90363281 204.68289063 47.80726563 204.51953125 48.73828125 C204.28621094 49.91777344 204.05289062 51.09726563 203.8125 52.3125 C203.59207031 53.48425781 203.37164062 54.65601563 203.14453125 55.86328125 C202 59 202 59 199.61328125 60.92578125 C196.01935764 62.40310411 193.72068967 61.96462325 190 61 C188.125 59.9375 188.125 59.9375 187 58 C185.64374096 50.94049781 186.06105024 44.00160824 186.50439453 36.85375977 C186.62530632 34.80731553 186.7131278 32.76099425 186.80078125 30.71289062 C186.87941406 29.41158203 186.95804687 28.11027344 187.0390625 26.76953125 C187.13501709 24.99993042 187.13501709 24.99993042 187.23291016 23.19458008 C188.20203418 19.1586196 189.81293244 17.58757905 193 15 C195.84765625 14.22265625 195.84765625 14.22265625 199 14 C200.17433594 13.89558594 201.34867187 13.79117188 202.55859375 13.68359375 C205.98449398 13.46624056 209.40906206 13.26709742 212.83789062 13.10400391 C214.26663629 13.03527698 215.69506457 12.95955581 217.12304688 12.87646484 C219.14319692 12.76502464 221.16546858 12.69438343 223.1875 12.625 C224.37730469 12.57601562 225.56710937 12.52703125 226.79296875 12.4765625 C230.98944851 13.16149342 232.4168777 14.69456017 235 18 C235.5625 21.5625 235.5625 21.5625 235 25 C233.13291495 27.36497439 231.67938569 28.66030715 229 30 C226.7927077 30.07092842 224.58332548 30.08415025 222.375 30.0625 C221.18648438 30.05347656 219.99796875 30.04445312 218.7734375 30.03515625 C217.85820312 30.02355469 216.94296875 30.01195312 216 30 C216.79921875 31.03253906 217.5984375 32.06507813 218.421875 33.12890625 C246.508811 70.20176546 258.17010388 114.15401483 252.40673828 160.22851562 C247.69816875 192.31235794 233.59036155 221.94035957 212 246 C210.80503906 247.37671875 210.80503906 247.37671875 209.5859375 248.78125 C181.82621567 280.45213539 140.48313157 298.0304003 99 301 C54.67890569 303.41317009 11.81326561 288.36472729 -21.4609375 258.9765625 C-36.18596677 245.72570898 -47.7041937 230.4629827 -57 213 C-57.79857422 211.52466797 -57.79857422 211.52466797 -58.61328125 210.01953125 C-77.88027081 173.12847371 -81.17378942 128.06741914 -69.1953125 88.33056641 C-62.73813624 68.22689097 -53.4229046 49.43643355 -39.6953125 33.2890625 C-37.68311087 31.10296037 -37.68311087 31.10296037 -38.25 28.25 C-38.4975 27.1775 -38.745 26.105 -39 25 C-39.7658141 18.01362576 -38.57268121 12.08865389 -35 6 C-25.9988595 -4.82981464 -12.0684413 -7.16086311 0 0 Z " fill="#000000" transform="translate(167,159)"/>
</svg>
